<svg xmlns="http://www.w3.org/2000/svg" fill="none" viewBox="0 0 128 128">
  <path stroke="#FBBA76" stroke-linecap="round" stroke-linejoin="round" stroke-width="2.75" d="M58.19 66.13L95.96 119 36.64 74l54.72-20L32 9l36.42 53.38"/>
  <path stroke="#FE6704" stroke-linecap="square" stroke-linejoin="square" stroke-width="2.75" d="M103.98 108a8.99 8.99 0 0 0 8.98-8.98V69a5 5 0 0 1 5-5M103.98 20a8.99 8.99 0 0 1 8.98 8.98V59a5 5 0 0 0 5 5M23.98 108A8.99 8.99 0 0 1 15 99.02V69a5 5 0 0 0-5-5M23.98 20A8.99 8.99 0 0 0 15 28.98V59a5 5 0 0 1-5 5"/>
</svg>